<svg width="1440" height="1004" viewBox="0 0 1440 1004" fill="none" xmlns="http://www.w3.org/2000/svg">
<path fill-rule="evenodd" clip-rule="evenodd" d="M247.485 61.8803C255.478 48.0356 273.182 43.292 287.026 51.2852L1447.18 721.099C1461.02 729.093 1465.77 746.796 1457.77 760.641L1145.15 1302.11C1137.16 1315.96 1119.46 1320.7 1105.61 1312.71L-54.5385 642.893C-68.3832 634.899 -73.1268 617.196 -65.1335 603.352L247.485 61.8803ZM281.237 61.3125C272.93 56.5165 262.308 59.3627 257.512 67.6695L-55.1063 609.141C-59.9023 617.448 -57.0561 628.07 -48.7493 632.865L1111.4 1302.68C1119.71 1307.48 1130.33 1304.63 1135.13 1296.32L1447.75 754.851C1452.54 746.545 1449.7 735.923 1441.39 731.127L281.237 61.3125Z" fill="white"/>
<path fill-rule="evenodd" clip-rule="evenodd" d="M195.961 151.123C197.56 148.354 201.1 147.405 203.869 149.004L378.343 249.736C392.188 257.73 396.931 275.433 388.938 289.278L203.104 611.152C195.111 624.997 177.407 629.74 163.563 621.747L-10.9114 521.015C-13.6804 519.416 -14.6291 515.875 -13.0305 513.106C-11.4318 510.337 -7.89116 509.389 -5.12221 510.987L169.352 611.72C177.659 616.516 188.281 613.67 193.077 605.363L378.911 283.488C383.707 275.181 380.861 264.56 372.554 259.764L198.08 159.031C195.311 157.432 194.362 153.892 195.961 151.123Z" fill="white"/>
<path fill-rule="evenodd" clip-rule="evenodd" d="M309.44 403.815C311.039 401.046 314.58 400.098 317.349 401.696C342.823 416.404 351.551 448.978 336.843 474.452C322.136 499.926 289.562 508.655 264.088 493.947C261.319 492.348 260.37 488.808 261.969 486.039C263.567 483.27 267.108 482.321 269.877 483.92C289.813 495.43 315.306 488.599 326.816 468.663C338.326 448.726 331.496 423.234 311.559 411.723C308.79 410.125 307.842 406.584 309.44 403.815Z" fill="white"/>
<path fill-rule="evenodd" clip-rule="evenodd" d="M290.465 55.2287C293.554 54.4012 296.728 56.2339 297.556 59.3223C301.638 74.5573 292.597 90.217 277.362 94.2992C262.127 98.3814 246.467 89.3403 242.385 74.1053C241.557 71.0169 243.39 67.8424 246.479 67.0149C249.567 66.1874 252.741 68.0202 253.569 71.1085C255.996 80.1668 265.307 85.5424 274.365 83.1152C283.423 80.6881 288.799 71.3773 286.372 62.319C285.544 59.2307 287.377 56.0562 290.465 55.2287Z" fill="white"/>
<path fill-rule="evenodd" clip-rule="evenodd" d="M1441.76 719.928C1440.93 716.84 1437.76 715.007 1434.67 715.835C1419.43 719.917 1410.39 735.577 1414.47 750.812C1418.56 766.047 1434.22 775.088 1449.45 771.006C1452.54 770.178 1454.37 767.004 1453.55 763.915C1452.72 760.827 1449.54 758.994 1446.46 759.822C1437.4 762.249 1428.09 756.873 1425.66 747.815C1423.23 738.757 1428.61 729.446 1437.67 727.019C1440.75 726.191 1442.59 723.017 1441.76 719.928Z" fill="white"/>
<path fill-rule="evenodd" clip-rule="evenodd" d="M141.542 245.379C143.141 242.61 146.681 241.661 149.45 243.26L226.66 287.837C240.505 295.83 245.248 313.533 237.255 327.378L159.679 461.743C151.686 475.588 133.983 480.331 120.138 472.338L42.9284 427.761C40.1595 426.162 39.2108 422.622 40.8094 419.853C42.4081 417.084 45.9487 416.135 48.7177 417.734L125.927 462.311C134.234 467.107 144.856 464.261 149.652 455.954L227.228 321.589C232.024 313.282 229.178 302.66 220.871 297.864L143.661 253.287C140.892 251.688 139.943 248.148 141.542 245.379Z" fill="white"/>
<path fill-rule="evenodd" clip-rule="evenodd" d="M92.9572 190.589C100.95 176.744 118.654 172.001 132.498 179.994L165.588 199.098C168.357 200.697 169.306 204.238 167.707 207.007C166.109 209.776 162.568 210.724 159.799 209.126L126.709 190.021C118.402 185.225 107.78 188.071 102.984 196.378L-20.9051 410.961C-25.7011 419.268 -22.8549 429.89 -14.5481 434.686L18.5418 453.79C21.3108 455.389 22.2595 458.93 20.6608 461.699C19.0622 464.468 15.5215 465.416 12.7526 463.818L-20.3373 444.713C-34.1821 436.72 -38.9256 419.017 -30.9324 405.172L92.9572 190.589Z" fill="white"/>
<path fill-rule="evenodd" clip-rule="evenodd" d="M1406.25 849.883C1407.85 847.114 1406.9 843.574 1404.13 841.975L1229.66 741.242C1215.81 733.249 1198.11 737.993 1190.12 751.837L1004.28 1073.71C996.288 1087.56 1001.03 1105.26 1014.88 1113.25L1189.35 1213.99C1192.12 1215.58 1195.66 1214.64 1197.26 1211.87C1198.86 1209.1 1197.91 1205.56 1195.14 1203.96L1020.67 1103.23C1012.36 1098.43 1009.51 1087.81 1014.31 1079.5L1200.14 757.626C1204.94 749.32 1215.56 746.473 1223.87 751.269L1398.34 852.002C1401.11 853.601 1404.65 852.652 1406.25 849.883Z" fill="white"/>
<path fill-rule="evenodd" clip-rule="evenodd" d="M1130.67 877.953C1132.27 875.184 1131.32 871.644 1128.55 870.045C1103.08 855.338 1070.5 864.066 1055.8 889.54C1041.09 915.014 1049.82 947.588 1075.29 962.296C1078.06 963.895 1081.6 962.946 1083.2 960.177C1084.8 957.408 1083.85 953.867 1081.08 952.269C1061.14 940.758 1054.31 915.266 1065.82 895.329C1077.33 875.393 1102.83 868.562 1122.76 880.072C1125.53 881.671 1129.07 880.722 1130.67 877.953Z" fill="white"/>
<path fill-rule="evenodd" clip-rule="evenodd" d="M1351.83 944.139C1353.43 941.37 1352.48 937.83 1349.71 936.231L1272.5 891.654C1258.66 883.661 1240.95 888.404 1232.96 902.249L1155.39 1036.61C1147.39 1050.46 1152.14 1068.16 1165.98 1076.16L1243.19 1120.73C1245.96 1122.33 1249.5 1121.38 1251.1 1118.61C1252.7 1115.84 1251.75 1112.3 1248.98 1110.71L1171.77 1066.13C1163.46 1061.33 1160.62 1050.71 1165.41 1042.4L1242.99 908.038C1247.78 899.731 1258.41 896.885 1266.71 901.681L1343.92 946.258C1346.69 947.857 1350.23 946.908 1351.83 944.139Z" fill="white"/>
<path fill-rule="evenodd" clip-rule="evenodd" d="M1423.57 958.82C1431.57 944.975 1426.82 927.272 1412.98 919.279L1379.89 900.174C1377.12 898.576 1373.58 899.525 1371.98 902.293C1370.38 905.062 1371.33 908.603 1374.1 910.202L1407.19 929.306C1415.5 934.102 1418.34 944.724 1413.55 953.031L1289.66 1167.61C1284.86 1175.92 1274.24 1178.77 1265.93 1173.97L1232.84 1154.87C1230.07 1153.27 1226.53 1154.22 1224.93 1156.99C1223.33 1159.75 1224.28 1163.3 1227.05 1164.89L1260.14 1184C1273.99 1191.99 1291.69 1187.25 1299.68 1173.4L1423.57 958.82Z" fill="white"/>
<path fill-rule="evenodd" clip-rule="evenodd" d="M868.72 393.811C871.489 395.41 872.438 398.95 870.839 401.719L539.116 976.281C537.517 979.049 533.977 979.998 531.208 978.4C528.439 976.801 527.49 973.26 529.089 970.491L860.812 395.93C862.411 393.161 865.951 392.212 868.72 393.811Z" fill="white"/>
<path fill-rule="evenodd" clip-rule="evenodd" d="M755.37 579.718C701.93 548.864 633.595 567.174 602.741 620.615C571.887 674.056 590.197 742.39 643.638 773.244C697.079 804.098 765.413 785.788 796.267 732.347C827.121 678.906 808.811 610.572 755.37 579.718ZM592.714 614.826C626.765 555.847 702.181 535.64 761.159 569.691C820.138 603.742 840.346 679.158 806.294 738.136C772.243 797.115 696.827 817.323 637.849 783.271C578.87 749.22 558.663 673.804 592.714 614.826Z" fill="white"/>
</svg>
