<svg width="210" height="38" viewBox="0 0 210 38" fill="none" xmlns="http://www.w3.org/2000/svg">
<path d="M20.5234 36L9.13281 16.1484V36H0.390625V1.875H9.13281L20.5 21.7031V1.875H29.2188V36H20.5234Z" fill="black"/>
<path d="M59.7709 23.9297C59.7709 26.5859 59.2241 28.8594 58.1303 30.75C57.0366 32.625 55.4741 34.0469 53.4428 35.0156C51.4116 35.9844 49.0131 36.4688 46.2475 36.4688C43.5131 36.4688 41.1147 35.9844 39.0522 35.0156C37.0053 34.0312 35.4116 32.6016 34.2709 30.7266C33.1459 28.8359 32.5834 26.5703 32.5834 23.9297V1.875H41.3725V23.9297C41.3725 25.8516 41.7788 27.25 42.5913 28.125C43.4038 28.9844 44.6225 29.4141 46.2475 29.4141C47.8725 29.4141 49.0756 28.9844 49.8569 28.125C50.6381 27.25 51.0288 25.8516 51.0288 23.9297V1.875H59.7709V23.9297Z" fill="black"/>
<path d="M71.9716 8.95312V15.1172H84.6513V21.9141H71.9716V28.9453H86.995V36H68.7606H63.2294V1.875H71.9716H87.0888V8.95312H71.9716Z" fill="black"/>
<path d="M110.141 18.7266C112 19.1953 113.36 20.0859 114.219 21.3984C115.078 22.7109 115.508 24.1875 115.508 25.8281C115.508 32.6094 111.157 36 102.453 36H91.9534H88.6019V1.875H101C105.391 1.875 108.789 2.67969 111.196 4.28906C113.602 5.88281 114.805 8.25 114.805 11.3906C114.805 13.0625 114.438 14.5469 113.703 15.8438C112.969 17.1406 111.782 18.1016 110.141 18.7266ZM97.3441 8.95312V16.0547H100.93C102.821 16.0547 104.149 15.7891 104.914 15.2578C105.68 14.7266 106.063 13.8672 106.063 12.6797C106.063 11.3516 105.664 10.3984 104.868 9.82031C104.071 9.24219 102.782 8.95312 101 8.95312H97.3441ZM102.453 28.9453C103.953 28.9453 105.047 28.6406 105.735 28.0312C106.438 27.4062 106.789 26.6172 106.789 25.6641C106.789 23.1641 105.461 21.9141 102.805 21.9141H97.3441V28.9453H102.453Z" fill="black"/>
<path d="M147 20.0391C147 23.4609 146.359 26.4531 145.078 29.0156C143.797 31.5625 142.016 33.5234 139.734 34.8984C137.453 36.2578 134.852 36.9375 131.93 36.9375C128.961 36.9375 126.328 36.2578 124.031 34.8984C121.75 33.5234 119.969 31.5625 118.688 29.0156C117.422 26.4531 116.789 23.4609 116.789 20.0391V18.7969C116.789 15.375 117.422 12.3906 118.688 9.84375C119.969 7.28125 121.75 5.3125 124.031 3.9375C126.313 2.5625 128.93 1.875 131.883 1.875C134.805 1.875 137.406 2.5625 139.688 3.9375C141.984 5.3125 143.773 7.28125 145.055 9.84375C146.352 12.3906 147 15.375 147 18.7969V20.0391ZM138.07 18.75C138.07 15.5938 137.531 13.1875 136.453 11.5312C135.391 9.85938 133.867 9.02344 131.883 9.02344C127.773 9.02344 125.719 12.2656 125.719 18.75V20.0391C125.719 23.1953 126.234 25.6172 127.266 27.3047C128.312 28.9766 129.867 29.8125 131.93 29.8125C133.898 29.8125 135.414 28.9609 136.477 27.2578C137.539 25.5547 138.07 23.1484 138.07 20.0391V18.75Z" fill="black"/>
<path d="M179.339 20.0391C179.339 23.4609 178.698 26.4531 177.417 29.0156C176.136 31.5625 174.355 33.5234 172.073 34.8984C169.792 36.2578 167.191 36.9375 164.269 36.9375C161.3 36.9375 158.667 36.2578 156.37 34.8984C154.089 33.5234 152.308 31.5625 151.027 29.0156C149.761 26.4531 149.128 23.4609 149.128 20.0391V18.7969C149.128 15.375 149.761 12.3906 151.027 9.84375C152.308 7.28125 154.089 5.3125 156.37 3.9375C158.652 2.5625 161.269 1.875 164.222 1.875C167.144 1.875 169.745 2.5625 172.027 3.9375C174.323 5.3125 176.113 7.28125 177.394 9.84375C178.691 12.3906 179.339 15.375 179.339 18.7969V20.0391ZM170.409 18.75C170.409 15.5938 169.87 13.1875 168.792 11.5312C167.73 9.85938 166.206 9.02344 164.222 9.02344C160.113 9.02344 158.058 12.2656 158.058 18.75V20.0391C158.058 23.1953 158.573 25.6172 159.605 27.3047C160.652 28.9766 162.206 29.8125 164.269 29.8125C166.238 29.8125 167.753 28.9609 168.816 27.2578C169.878 25.5547 170.409 23.1484 170.409 20.0391V18.75Z" fill="black"/>
<path d="M208.489 8.95312H198.318V36H189.552V8.95312H179.638V1.875H198.318H208.489V8.95312Z" fill="black"/>
</svg>
